<svg width="120" height="32" viewBox="0 0 120 32" fill="none" xmlns="http://www.w3.org/2000/svg">
<g id="Icon Logo Blue" clip-path="url(#clip0_16090_4418)">
<g id="Group">
<path id="Vector" d="M46.2431 23.1923V6.03369H42.9033V25.7323H55.1377V23.1939H46.2431V23.1923Z" fill="#26406D"/>
<path id="Vector_2" d="M64.5866 23.1924C63.2592 23.1924 62.0747 22.7374 61.2578 21.9106C60.4566 21.1011 60.0388 19.9966 60.056 18.7196V18.5642H70.6032C70.5467 14.1259 68.1039 11.4824 64.0446 11.4824C59.6932 11.4824 56.6519 14.435 56.6519 18.6647C56.6519 22.8943 59.8455 26.0163 64.4138 26.0163C67.2415 26.0163 69.0197 24.8742 70.2576 23.8403L68.4181 21.4933C67.5289 22.5758 66.1434 23.1908 64.585 23.1908L64.5866 23.1924ZM60.6122 16.3726C61.2955 14.9747 62.4926 14.1385 63.8137 14.1385C65.1348 14.1385 66.4199 15.0202 66.9367 16.3851L67.02 16.6H60.5022L60.6137 16.3726H60.6122Z" fill="#26406D"/>
<path id="Vector_3" d="M80.1482 18.6362L85.062 11.7725H81.1159L78.538 16.2688L75.9318 11.7725H71.9825L76.9011 18.6362L71.981 25.7322H75.9287L78.5396 20.9315L81.119 25.7322H85.0683L80.1482 18.6362Z" fill="#26406D"/>
<path id="Vector_4" d="M94.6197 14.7959V11.7444H91.36V7.88818H88.2449V9.32683C88.2449 10.2917 88.6863 10.9365 89.6367 11.3554L89.731 11.3962V11.7444H86.5562V14.7959H88.2449V22.1209C88.2449 24.4883 89.5959 25.9583 91.7748 25.9583C92.8257 25.9583 93.7573 25.6131 94.6197 24.9025V22.819C94.2914 22.9822 93.8531 23.1328 93.2609 23.1328C92.0905 23.1328 91.36 22.2323 91.36 20.7779V14.7943H94.6197V14.7959Z" fill="#26406D"/>
<path id="Vector_5" d="M104.135 23.1924C102.808 23.1924 101.628 22.7374 100.806 21.9106C100.005 21.1011 99.5903 19.9966 99.6013 18.7196L99.606 18.5642H110.152C110.093 14.1259 107.652 11.4824 103.591 11.4824C99.2399 11.4824 96.2002 14.435 96.2002 18.6647C96.2002 22.8943 99.3939 26.0163 103.962 26.0163C106.79 26.0163 108.57 24.8742 109.804 23.8403L107.965 21.4933C107.076 22.5758 105.692 23.1908 104.135 23.1908V23.1924ZM100.164 16.3726C100.845 14.9747 102.041 14.1385 103.365 14.1385C104.689 14.1385 105.971 15.0202 106.485 16.3851L106.568 16.6H100.052L100.164 16.3726Z" fill="#26406D"/>
<path id="Vector_6" d="M117.521 11.7445C116.325 11.8073 115.139 12.7894 115.091 13.9848H114.833V11.7429H111.738V25.7324H115.076V18.249C115.076 16.6252 116.399 14.8257 118.47 14.8257C118.663 14.8257 118.862 14.8399 119.059 14.8665V11.7445C118.512 11.732 117.992 11.721 117.522 11.7461L117.521 11.7445Z" fill="#26406D"/>
</g>
<g id="Group_2">
<path id="Vector_7" d="M27.0388 0H5.0034C2.2401 0 0 2.23715 0 4.99681V27.0032C0 29.7628 2.2401 32 5.0034 32H27.0388C29.8021 32 32.0422 29.7628 32.0422 27.0032V4.99681C32.0422 2.23715 29.8021 0 27.0388 0Z" fill="#26406D"/>
<g id="Group_3">
<path id="Vector_8" d="M29.1186 9.12451L27.953 10.7106L26.3538 12.8741L25.4693 14.0711L24.1953 15.7953L23.5277 16.699L23.0014 17.4112L21.8923 18.911L21.0079 17.714L20.9718 17.6622L18.9814 14.9685L18.7945 14.7159L18.2949 14.0397L19.9287 11.8292L21.9285 9.12451H29.1186Z" fill="#FDF0E9"/>
<path id="Vector_9" d="M17.5284 15.0801L13.7534 20.1914L17.3477 25.0564H24.8991L17.5284 15.0801Z" fill="#FDF0E9"/>
<path id="Vector_10" d="M2.92188 22.8849L4.10164 21.2878L5.70084 19.1259L6.58527 17.9289L7.85929 16.2032L8.52693 15.3011L9.05162 14.5888L10.1623 13.0874L11.0451 14.286L11.0828 14.3362L13.0732 17.0315L13.2601 17.2825L13.7597 17.9603L12.1244 20.1708L10.1151 22.8881L2.92188 22.8849Z" fill="#F4BB51"/>
<path id="Vector_11" d="M14.5246 16.9203L18.3011 11.809L14.7052 6.94395L7.15381 6.94238L14.5246 16.9203Z" fill="#F4BB51"/>
</g>
</g>
</g>
<defs>
<clipPath id="clip0_16090_4418">
<rect width="119.059" height="32" fill="white"/>
</clipPath>
</defs>
</svg>
